<svg xmlns="http://www.w3.org/2000/svg" viewBox="0 0 128.4 86.23"><defs><style>.cls-1{fill:#3c2e8c;}.cls-2{fill:#fff;}</style></defs><title>saz-adventure-video</title><g id="Layer_2" data-name="Layer 2"><g id="Layer_1-2" data-name="Layer 1"><path class="cls-1" d="M28.14,55.14C9.34,67.49,0,86.23,0,86.23s21.14-1.31,39.94-13.67,31.38-26.28,28.13-31.1S46.93,42.78,28.14,55.14Z"/><path class="cls-2" d="M29.18,56.68C13.73,66.85,6.05,82.25,6.05,82.25S23.43,81.18,38.89,71,64.7,49.4,62,45.44,44.64,46.51,29.18,56.68Z"/><path class="cls-1" d="M30.09,58a59.8,59.8,0,0,0-18.8,20.79A61,61,0,0,0,38,69.67c12.56-8.26,21-17.57,18.8-20.78S42.65,49.76,30.09,58Z"/><path class="cls-2" d="M31,59.41A45.49,45.49,0,0,0,16.71,75.25a46.59,46.59,0,0,0,20.33-7C46.61,62,53,54.9,51.37,52.45S40.6,53.12,31,59.41Z"/><path class="cls-2" d="M8.72,39.76l18.53,2.7,3.53-2.83a84.71,84.71,0,0,0,6,13.57A79.65,79.65,0,0,0,47,68.14l-4.15,3.07L35.82,82.6l3.26,3.17,12.82-8.3,3.73,6.79s17.7-10.92,28.25-18.07,8.69-11.25,8.69-11.25c38.5-31.26,35.79-51.2,35.79-51.2-27.29-14.1-77,16.17-77,16.17s-9.07-3.13-15.74-1.3S7.87,35.29,7.87,35.29Z"/><path class="cls-1" d="M10,38.84,26.64,41l5.08-3.65c3.4,11.47,12,24.4,17.78,30.5l-5.94,3.92-6,10.09L40,84.26,52.39,75.8l3.82,6.9S73,72.38,83.22,65.45s8.42-10.92,8.42-10.92C129,24.22,126.36,4.89,126.36,4.89c-26.47-13.69-75,16.58-75,16.58s-8.93-3.53-15.4-1.75S9.49,35.48,9.49,35.48Z"/><path class="cls-1" d="M126.36,4.89a32,32,0,0,0-8.85-3,11.38,11.38,0,0,0,1.87,7.9,11.7,11.7,0,0,0,5.4,4.32C126.8,8.16,126.36,4.89,126.36,4.89Z"/><path class="cls-2" d="M88.71,61.61c.39-.81,1.36-3.35,1.08-3.92s-13.32,8.82-13.32,8.82l-11.8,8.06s-4.65,4.86-8.86.28l-3,2.42-1-1s13.46-8.44,15.92-12.08c0,0,2.61-3.45.53-5.83A23.49,23.49,0,0,1,60.76,67C55.29,71,37.39,82.57,37.39,82.57l-.62-.91s26.8-16.38,29.12-22.09a8.61,8.61,0,0,0,.58-2.91L48.72,68.33l-2.51-3L67.54,54.66s2.93,2.89,2.89,4.56a12,12,0,0,1-4.33,8.17C62.83,70.06,58,73.6,58,73.6s1.8,2,2.7,1.59S85.34,59.84,88.63,56.9l3.08-2.45.18,2.88L90.14,60Z"/><polygon class="cls-2" points="51.12 20.58 51.95 25.57 31.81 39.75 31.44 37.5 50.31 25.36 49.7 20.12 51.12 20.58"/><path class="cls-2" d="M9.26,39.11,34.93,23.93s7.13-3.13,16,1.55l0-1.68s-9.61-4.54-17-.35S8.93,38.14,8.93,38.14Z"/><path class="cls-2" d="M121,7.14C114.31,8.43,53.2,24.33,41.27,50l-4-7.89S77.4,10.17,119.69,5Z"/><path class="cls-2" d="M87.25,41.24A8.24,8.24,0,1,1,80.8,31.5,8.26,8.26,0,0,1,87.25,41.24Z"/><path class="cls-2" d="M108.39,27.67a7.37,7.37,0,1,1-5.77-8.73A7.39,7.39,0,0,1,108.39,27.67Z"/></g></g></svg>