<svg xmlns="http://www.w3.org/2000/svg" xmlns:xlink="http://www.w3.org/1999/xlink" viewBox="0 0 280 280"><defs><style>.cls-1,.cls-17,.cls-19,.cls-20,.cls-21{fill:none;}.cls-1,.cls-17,.cls-20,.cls-5,.cls-6,.cls-7,.cls-8{stroke:#231f20;}.cls-1{stroke-width:5px;}.cls-2{fill:#f7941d;}.cls-3{fill:url(#radial-gradient);}.cls-4{fill:url(#linear-gradient);}.cls-13,.cls-5{fill:#231f20;}.cls-17,.cls-19,.cls-20,.cls-21,.cls-5,.cls-6,.cls-7,.cls-8{stroke-linecap:round;stroke-linejoin:round;}.cls-5,.cls-6,.cls-7{stroke-width:2px;}.cls-6{fill:url(#linear-gradient-2);}.cls-7{fill:url(#linear-gradient-3);}.cls-8{stroke-width:3.52px;fill:url(#linear-gradient-4);}.cls-9{fill:url(#linear-gradient-5);}.cls-10{fill:url(#linear-gradient-6);}.cls-11{fill:url(#linear-gradient-7);}.cls-12{fill:#fff;}.cls-14{fill:url(#radial-gradient-2);}.cls-15{fill:url(#linear-gradient-8);}.cls-16{fill:url(#radial-gradient-3);}.cls-17{stroke-width:7.65px;}.cls-18{fill:url(#linear-gradient-9);}.cls-19,.cls-21{stroke:#fff;}.cls-19{stroke-width:2.16px;}.cls-20{stroke-width:2.55px;}.cls-21{stroke-width:3.83px;}.cls-22{fill:url(#New_Gradient_Swatch_copy_2);}.cls-23{fill:#fbb040;}.cls-24{fill:url(#linear-gradient-10);}.cls-25{fill:url(#linear-gradient-11);}.cls-26{fill:url(#linear-gradient-12);}.cls-27{fill:url(#radial-gradient-4);}</style><radialGradient id="radial-gradient" cx="142.76" cy="105.15" r="296.54" gradientTransform="translate(0 -1.38)" gradientUnits="userSpaceOnUse"><stop offset="0.23" stop-color="#ffde17"/><stop offset="1" stop-color="#f7941d"/></radialGradient><linearGradient id="linear-gradient" x1="142.49" y1="249.29" x2="142.49" y2="207.27" gradientUnits="userSpaceOnUse"><stop offset="0" stop-color="#f7941d"/><stop offset="1" stop-color="#f7941d" stop-opacity="0"/></linearGradient><linearGradient id="linear-gradient-2" x1="93.55" y1="227.48" x2="186.37" y2="227.48" gradientUnits="userSpaceOnUse"><stop offset="0.01" stop-color="#231f20"/><stop offset="1" stop-color="#58595b"/></linearGradient><linearGradient id="linear-gradient-3" x1="139.69" y1="224.6" x2="139.69" y2="184.35" xlink:href="#linear-gradient-2"/><linearGradient id="linear-gradient-4" x1="140.06" y1="96.24" x2="148.22" y2="245.26" xlink:href="#linear-gradient-2"/><linearGradient id="linear-gradient-5" x1="54.17" y1="151.77" x2="192.67" y2="151.77" gradientUnits="userSpaceOnUse"><stop offset="0" stop-color="#fff"/><stop offset="1" stop-color="#fff" stop-opacity="0"/></linearGradient><linearGradient id="linear-gradient-6" x1="84.1" y1="151.63" x2="211.51" y2="151.63" xlink:href="#linear-gradient-5"/><linearGradient id="linear-gradient-7" x1="214.45" y1="94.34" x2="213.41" y2="127.53" xlink:href="#linear-gradient-5"/><radialGradient id="radial-gradient-2" cx="-506.95" cy="152.17" r="90.54" gradientTransform="translate(791.66 34.06) scale(1.29 0.78)" gradientUnits="userSpaceOnUse"><stop offset="0.34" stop-color="#fff"/><stop offset="1" stop-color="#cde3ec"/></radialGradient><linearGradient id="linear-gradient-8" x1="44.14" y1="92.37" x2="235.82" y2="92.37" xlink:href="#linear-gradient-5"/><radialGradient id="radial-gradient-3" cx="142.91" cy="156.89" r="71.25" gradientUnits="userSpaceOnUse"><stop offset="0" stop-color="#cde3ec" stop-opacity="0"/><stop offset="1" stop-color="#cde3ec"/></radialGradient><linearGradient id="linear-gradient-9" x1="62.68" y1="95.59" x2="202.71" y2="95.59" gradientUnits="userSpaceOnUse"><stop offset="0" stop-color="#e6e7e8"/><stop offset="1" stop-color="#fff"/></linearGradient><radialGradient id="New_Gradient_Swatch_copy_2" cx="-2819.64" cy="3384.2" r="48.38" gradientTransform="matrix(0.32, 0.95, 0.95, -0.32, -2193.91, 3811.16)" gradientUnits="userSpaceOnUse"><stop offset="0" stop-color="#f9ed32"/><stop offset="1" stop-color="#fbb040"/></radialGradient><linearGradient id="linear-gradient-10" x1="-1866.71" y1="3025.86" x2="-1863.95" y2="3025.86" gradientTransform="matrix(0.53, 0.85, 0.85, -0.53, -1479.75, 3263.36)" gradientUnits="userSpaceOnUse"><stop offset="0.01" stop-color="#fff"/><stop offset="1" stop-color="#fff" stop-opacity="0"/></linearGradient><linearGradient id="linear-gradient-11" x1="-1883.1" y1="3057.24" x2="-1877.03" y2="3057.24" xlink:href="#linear-gradient-10"/><linearGradient id="linear-gradient-12" x1="-1871.62" y1="3047.63" x2="-1843.16" y2="3037.79" gradientTransform="matrix(0.53, 0.85, 0.85, -0.53, -1479.75, 3263.36)" gradientUnits="userSpaceOnUse"><stop offset="0.01" stop-color="#fff"/><stop offset="1" stop-color="#fff" stop-opacity="0"/></linearGradient><radialGradient id="radial-gradient-4" cx="-1843.15" cy="3051.02" r="47.75" gradientTransform="matrix(0.53, 0.85, 0.85, -0.53, -1479.75, 3263.36)" xlink:href="#linear-gradient-10"/></defs><title>WritingRoom_Icons_Final4</title><g id="Layer_1" data-name="Layer 1"><rect class="cls-1" x="31.5" y="34.4" width="217" height="243.09" rx="5.37" ry="5.37"/><path class="cls-1" d="M243.13,35.4a4.38,4.38,0,0,1,4.38,4.38V272.12a4.38,4.38,0,0,1-4.37,4.38H36.88a4.38,4.38,0,0,1-4.37-4.37V39.78a4.38,4.38,0,0,1,4.38-4.37H243.13m0-1H36.88a5.38,5.38,0,0,0-5.37,5.38V272.12a5.38,5.38,0,0,0,5.38,5.38H243.13a5.38,5.38,0,0,0,5.38-5.37V39.78a5.38,5.38,0,0,0-5.37-5.37Z"/><rect class="cls-1" x="31.5" y="27.5" width="217" height="243.09" rx="5.37" ry="5.37"/><path class="cls-1" d="M243.13,28.5a4.38,4.38,0,0,1,4.38,4.38V265.21a4.38,4.38,0,0,1-4.37,4.38H36.88a4.38,4.38,0,0,1-4.37-4.37V32.87a4.38,4.38,0,0,1,4.38-4.38H243.13m0-1H36.88a5.38,5.38,0,0,0-5.37,5.38V265.21a5.38,5.38,0,0,0,5.38,5.38H243.13a5.38,5.38,0,0,0,5.38-5.37V32.87a5.38,5.38,0,0,0-5.37-5.38Z"/><rect class="cls-2" x="31.5" y="34.4" width="217" height="243.09" rx="5.37" ry="5.37"/><rect class="cls-3" x="31.5" y="27.5" width="217" height="243.09" rx="5.37" ry="5.37"/><path class="cls-4" d="M233,233.17l-10.63-8.29a11.7,11.7,0,0,0-7.19-2.47H71.41A9.63,9.63,0,0,0,66.16,224l-14,9.13A1.59,1.59,0,0,0,53,236H93.85C96.3,242.17,116,247,140,247s43.7-4.8,46.15-11H232A1.59,1.59,0,0,0,233,233.17Z"/><path class="cls-5" d="M186.41,230.67c0,6.77-20.78,12.25-46.41,12.25s-46.41-5.48-46.41-12.25c0-.68-.29-3.11.12-3.76,3.63-5.81,23.25-8.49,46.29-8.49,22.28,0,41.39,1.89,45.88,7.42C186.56,226.67,186.41,229.79,186.41,230.67Z"/><ellipse class="cls-6" cx="139.96" cy="227.48" rx="46.41" ry="12.25"/><rect class="cls-7" x="126.01" y="198.85" width="27.35" height="23.53"/><polygon class="cls-8" points="221.85 210.05 58.07 210.05 43.09 94.44 49.98 90.95 230.58 90.95 236.83 94.44 221.85 210.05"/><polygon class="cls-9" points="192.67 207.54 169.79 207.54 54.17 95.99 70.36 95.99 73.58 102.55 84.34 103.03 192.67 207.54"/><polygon class="cls-10" points="211.51 207.24 199.75 207.28 84.1 95.99 96.2 96.28 211.51 207.24"/><polygon class="cls-11" points="232.79 130.7 191.97 95.99 236.83 95.99 232.79 130.7"/><polygon class="cls-12" points="66.1 202.84 52.97 102.48 226.41 102.61 212.37 202.96 66.1 202.84"/><path class="cls-13" d="M53.88,103.27l171.63.12-13.82,98.78L66.8,202,53.88,103.27m-1.8-1.58.23,1.79,12.92,98.78.18,1.38H66.8l144.89.12h1.38l.19-1.37,13.82-98.78.25-1.8H225.5l-171.63-.12Z"/><polygon class="cls-14" points="68.14 200.67 55.94 103.28 223.23 103.37 209.75 201.07 68.14 200.67"/><polygon class="cls-15" points="235.82 93.78 44.14 93.78 49.98 90.95 229.99 90.95 235.82 93.78"/><path class="cls-16" d="M85.22,139.53c4.06,14.36,8.15,29.23,6.63,44a2,2,0,0,0,2.39,2.12c27.16-5.82,67.17,8.65,94.47,4.08a2,2,0,0,0,1.6-2.3c-1.8-10.13-4-43.25-6.39-50.79-3.07-9.64-8.79-21.82-12.1-31.68a2,2,0,0,0-1.89-1.36H78.06a2,2,0,0,0-1.94,2.47C78,113.42,83.16,132.24,85.22,139.53Z"/><path class="cls-17" d="M202.71,149.77c-29.43,14.63-63.52,23.68-101.08,28.59.15-33.71-42.27-112.88-38.74-137C131.09,33.18,164,12.82,164,12.82,174.89,64.85,199.86,109.88,202.71,149.77Z"/><path class="cls-18" d="M202.71,149.77c-29.43,14.63-63.52,23.68-101.08,28.59.15-33.71-42.27-112.88-38.74-137C131.09,33.18,164,12.82,164,12.82,174.89,64.85,199.86,109.88,202.71,149.77Z"/><path class="cls-19" d="M202.71,149.77c-29.43,14.63-63.52,23.68-101.08,28.59.15-33.71-42.27-112.88-38.74-137C131.09,33.18,164,12.82,164,12.82,174.89,64.85,199.86,109.88,202.71,149.77Z"/><path class="cls-20" d="M100,128.29l78.64-29.95"/><path class="cls-20" d="M106.83,134.84l71.3-25.43"/><path class="cls-20" d="M109.82,146.73Q149.2,133.87,187.89,119"/><path class="cls-20" d="M113.24,157.87q38.05-13.28,75.61-27.95"/><path class="cls-20" d="M117.06,167.31q37.92-11.54,74.64-26.59"/><line class="cls-21" x1="137.43" y1="43" x2="145.95" y2="33.15"/><line class="cls-21" x1="143.23" y1="50.2" x2="156.34" y2="47.17"/><line class="cls-21" x1="126.96" y1="36.95" x2="129.68" y2="25.63"/><line class="cls-21" x1="115.43" y1="35.36" x2="111.37" y2="24.86"/><line class="cls-21" x1="106.43" y1="44.25" x2="97.31" y2="38.05"/><line class="cls-21" x1="102.32" y1="55.3" x2="88.93" y2="53.89"/><line class="cls-21" x1="102.66" y1="66.14" x2="92.08" y2="70.47"/><path class="cls-22" d="M120.65,114.48a2.61,2.61,0,0,1-2.57-2.15l-3.74-21.2L94.75,82.18a2.61,2.61,0,0,1-.14-4.67l19-10.11L116.07,46a2.6,2.6,0,0,1,4.4-1.58l15.49,15,21.1-4.28a2.67,2.67,0,0,1,.53-.05,2.61,2.61,0,0,1,2.33,3.75l-9.44,19.35L161.06,96.9a2.58,2.58,0,0,1,0,2.59,2.61,2.61,0,0,1-2.24,1.29l-.37,0-21.32-3-14.55,15.86A2.57,2.57,0,0,1,120.65,114.48Z"/><path class="cls-12" d="M118.67,45a1.24,1.24,0,0,1,.87.36l16,15.45,21.79-4.42.26,0a1.26,1.26,0,0,1,1.12,1.82l-9.75,20,10.94,19.36a1.26,1.26,0,0,1-1.09,1.88h-.18l-22-3.1-15,16.38a1.24,1.24,0,0,1-.92.41,1.26,1.26,0,0,1-1.25-1l-3.86-21.9L95.31,81a1.26,1.26,0,0,1-.07-2.26l19.63-10.44,2.53-22.09A1.26,1.26,0,0,1,118.67,45m0-2.69h0a4,4,0,0,0-3.93,3.5l-2.37,20.69L94,76.32a3.95,3.95,0,0,0,.21,7.08L113.14,92l3.61,20.51a3.95,3.95,0,0,0,6.8,2L137.63,99.2l20.62,2.9a4,4,0,0,0,.56,0,4,4,0,0,0,3.4-2,3.91,3.91,0,0,0,0-3.93L152,78.11l9.13-18.71a4,4,0,0,0-3.54-5.68,4,4,0,0,0-.79.08l-20.41,4.14-15-14.46a3.92,3.92,0,0,0-2.74-1.11Z"/><path class="cls-23" d="M118.67,45a1.24,1.24,0,0,1,.87.36l16,15.45,21.79-4.42.26,0a1.26,1.26,0,0,1,1.12,1.82l-9.75,20,10.94,19.36a1.26,1.26,0,0,1-1.09,1.88h-.18l-22-3.1-15,16.38a1.24,1.24,0,0,1-.92.41,1.26,1.26,0,0,1-1.25-1l-3.86-21.9L95.31,81a1.26,1.26,0,0,1-.07-2.26l19.63-10.44,2.53-22.09A1.26,1.26,0,0,1,118.67,45m0-1.34h0a2.61,2.61,0,0,0-2.6,2.31L113.62,67.4l-19,10.11a2.61,2.61,0,0,0,.14,4.67l19.58,8.94,3.74,21.2a2.61,2.61,0,0,0,2.57,2.15,2.57,2.57,0,0,0,1.91-.85l14.55-15.86,21.32,3,.37,0A2.61,2.61,0,0,0,161,99.5a2.58,2.58,0,0,0,0-2.59L150.48,78.16l9.44-19.35a2.61,2.61,0,0,0-2.33-3.75,2.66,2.66,0,0,0-.53.05L136,59.39l-15.49-15a2.58,2.58,0,0,0-1.8-.73Z"/><path class="cls-24" d="M95.73,79.81l3,1.37c1.24-1.56,2.5-3.21,3.83-5Z"/><path class="cls-25" d="M118.63,46.21l-.88,7.7c1.14-1.7,2.31-3.43,3.51-5.17Z"/><path class="cls-26" d="M127.74,55c-1.84,2.37-6.25,4.41-10.09,8.17a31.84,31.84,0,0,0-.88,5.89c-2.46,1.14-4.31,2.29-6.25,3.31-3.81,5.32-4.06,5.1-8.23,10.29l9,4.22c5.82-6.7,10.69-14.11,15.4-21.28,1.58-2.4,3.13-4.77,4.71-7.1Z"/><path class="cls-27" d="M119.12,103.52l1.49,8.45L136.14,95l22.74,3.2-11.3-20,7.51-15.39C136.31,67.39,129.34,100.65,119.12,103.52Z"/><ellipse class="cls-12" cx="140" cy="205.98" rx="7.81" ry="1.3"/></g></svg>