<svg xmlns="http://www.w3.org/2000/svg" xmlns:xlink="http://www.w3.org/1999/xlink" viewBox="0 0 280 280"><defs><style>.cls-1,.cls-4,.cls-6,.cls-8{fill:none;}.cls-1,.cls-33,.cls-34,.cls-35,.cls-36,.cls-4,.cls-8{stroke:#231f20;}.cls-1{stroke-width:5px;}.cls-2{fill:#f7941d;}.cls-3{fill:url(#radial-gradient);}.cls-33,.cls-34,.cls-35,.cls-36,.cls-4,.cls-6,.cls-8{stroke-linecap:round;stroke-linejoin:round;}.cls-4{stroke-width:5.75px;}.cls-5{fill:url(#linear-gradient);}.cls-6{stroke:#fff;stroke-width:1.62px;}.cls-7{fill:url(#linear-gradient-2);}.cls-8{stroke-width:4px;}.cls-9{fill:#77030f;}.cls-10{fill:#fff;}.cls-11{fill:#007f3a;}.cls-12{fill:url(#linear-gradient-3);}.cls-13{fill:#94111e;}.cls-14{fill:url(#linear-gradient-4);}.cls-15{fill:#8dc63f;}.cls-16{opacity:0.49;}.cls-17{fill:url(#linear-gradient-5);}.cls-18{fill:#003875;}.cls-19{fill:url(#linear-gradient-6);}.cls-20{fill:#004a8d;}.cls-21{fill:url(#linear-gradient-7);}.cls-22{fill:#221d5a;}.cls-23{fill:url(#linear-gradient-8);}.cls-24{fill:#4b2979;}.cls-25{fill:url(#linear-gradient-9);}.cls-26{opacity:0.5;fill:url(#linear-gradient-10);}.cls-27{fill:url(#New_Gradient_Swatch_copy_2);}.cls-28{fill:#fbb040;}.cls-29{fill:url(#linear-gradient-11);}.cls-30{fill:url(#linear-gradient-12);}.cls-31{fill:url(#linear-gradient-13);}.cls-32{fill:url(#radial-gradient-2);}.cls-33,.cls-34,.cls-35,.cls-36{stroke-width:2px;}.cls-33{fill:url(#linear-gradient-14);}.cls-34{fill:url(#linear-gradient-15);}.cls-35{fill:url(#linear-gradient-16);}.cls-36{fill:url(#linear-gradient-17);}</style><radialGradient id="radial-gradient" cx="146.74" cy="93.81" r="258" gradientTransform="translate(-1.21)" gradientUnits="userSpaceOnUse"><stop offset="0.23" stop-color="#ffde17"/><stop offset="1" stop-color="#f7941d"/></radialGradient><linearGradient id="linear-gradient" x1="-5163.59" y1="737.41" x2="-5069.44" y2="737.41" gradientTransform="matrix(-0.97, 0.24, 0.24, 0.97, -4995.81, 558.65)" gradientUnits="userSpaceOnUse"><stop offset="0" stop-color="#e6e7e8"/><stop offset="1" stop-color="#fff"/></linearGradient><linearGradient id="linear-gradient-2" x1="143.45" y1="240.46" x2="149.94" y2="272.08" gradientUnits="userSpaceOnUse"><stop offset="0" stop-color="#f7941d"/><stop offset="1" stop-color="#f7941d" stop-opacity="0"/></linearGradient><linearGradient id="linear-gradient-3" x1="208.11" y1="69.78" x2="232.46" y2="147.19" gradientUnits="userSpaceOnUse"><stop offset="0" stop-color="#bd4032"/><stop offset="1" stop-color="#db5a4e"/></linearGradient><linearGradient id="linear-gradient-4" x1="95.99" y1="48.89" x2="33.36" y2="177.34" gradientUnits="userSpaceOnUse"><stop offset="0" stop-color="#ffde17"/><stop offset="0.45" stop-color="#d7df23"/><stop offset="1" stop-color="#8dc63f"/></linearGradient><linearGradient id="linear-gradient-5" x1="72.12" y1="84.67" x2="58.07" y2="145.74" gradientUnits="userSpaceOnUse"><stop offset="0" stop-color="#fff" stop-opacity="0"/><stop offset="0.45" stop-color="#fff"/><stop offset="0.56" stop-color="#fff"/><stop offset="1" stop-color="#fff" stop-opacity="0"/></linearGradient><linearGradient id="linear-gradient-6" x1="189.11" y1="270.67" x2="78.85" y2="203.52" gradientUnits="userSpaceOnUse"><stop offset="0" stop-color="#004a8d"/><stop offset="1" stop-color="#007cc4"/></linearGradient><linearGradient id="linear-gradient-7" x1="116.52" y1="230.31" x2="71.32" y2="194.72" xlink:href="#linear-gradient-5"/><linearGradient id="linear-gradient-8" x1="182.66" y1="230.4" x2="255.51" y2="139.79" gradientUnits="userSpaceOnUse"><stop offset="0.01" stop-color="#7e5ca7"/><stop offset="1" stop-color="#55386f"/></linearGradient><linearGradient id="linear-gradient-9" x1="179.81" y1="225.44" x2="218.01" y2="190.3" xlink:href="#linear-gradient-5"/><linearGradient id="linear-gradient-10" x1="-63.55" y1="-466.39" x2="-41.09" y2="-429.32" gradientTransform="translate(171 551.74) rotate(12.33)" gradientUnits="userSpaceOnUse"><stop offset="0" stop-color="#fff" stop-opacity="0"/><stop offset="0.29" stop-color="#fff"/><stop offset="0.56" stop-color="#fff"/><stop offset="1" stop-color="#fff" stop-opacity="0"/></linearGradient><radialGradient id="New_Gradient_Swatch_copy_2" cx="-3609.57" cy="3439.09" r="43.07" gradientTransform="matrix(-0.01, 1, 1, 0.01, -3327.63, 3613.2)" gradientUnits="userSpaceOnUse"><stop offset="0" stop-color="#f9ed32"/><stop offset="1" stop-color="#fbb040"/></radialGradient><linearGradient id="linear-gradient-11" x1="-2628.93" y1="3197.25" x2="-2626.52" y2="3197.25" gradientTransform="matrix(0.23, 0.97, 0.97, -0.23, -2402.88, 3318.62)" gradientUnits="userSpaceOnUse"><stop offset="0.01" stop-color="#fff"/><stop offset="1" stop-color="#fff" stop-opacity="0"/></linearGradient><linearGradient id="linear-gradient-12" x1="-2643.28" y1="3224.72" x2="-2637.97" y2="3224.72" xlink:href="#linear-gradient-11"/><linearGradient id="linear-gradient-13" x1="-2633.23" y1="3216.31" x2="-2608.32" y2="3207.69" gradientTransform="matrix(0.23, 0.97, 0.97, -0.23, -2402.88, 3318.62)" gradientUnits="userSpaceOnUse"><stop offset="0.01" stop-color="#fff"/><stop offset="1" stop-color="#fff" stop-opacity="0"/></linearGradient><radialGradient id="radial-gradient-2" cx="-2608.3" cy="3219.28" r="41.81" gradientTransform="matrix(0.23, 0.97, 0.97, -0.23, -2402.88, 3318.62)" xlink:href="#linear-gradient-11"/><linearGradient id="linear-gradient-14" x1="116.2" y1="78.81" x2="173.03" y2="78.81" gradientTransform="matrix(1, 0, 0, 1, 0, 0)" xlink:href="#linear-gradient"/><linearGradient id="linear-gradient-15" x1="117.05" y1="84.6" x2="172.4" y2="84.6" gradientTransform="matrix(1, 0, 0, 1, 0, 0)" xlink:href="#linear-gradient"/><linearGradient id="linear-gradient-16" x1="117.05" y1="90.2" x2="168.76" y2="90.2" gradientTransform="matrix(1, 0, 0, 1, 0, 0)" xlink:href="#linear-gradient"/><linearGradient id="linear-gradient-17" x1="118.12" y1="96.27" x2="170.03" y2="96.27" gradientTransform="matrix(1, 0, 0, 1, 0, 0)" xlink:href="#linear-gradient"/></defs><title>WritingRoom_Icons_Final4</title><g id="Layer_1" data-name="Layer 1"><rect class="cls-1" x="34.13" y="34.4" width="217" height="243.09" rx="5.37" ry="5.37"/><path class="cls-1" d="M245.75,35.4a4.38,4.38,0,0,1,4.38,4.38V272.12a4.38,4.38,0,0,1-4.37,4.38H39.5a4.38,4.38,0,0,1-4.37-4.37V39.77A4.38,4.38,0,0,1,39.5,35.4H245.75m0-1H39.5a5.38,5.38,0,0,0-5.37,5.38V272.12a5.38,5.38,0,0,0,5.38,5.38H245.75a5.38,5.38,0,0,0,5.38-5.37V39.77a5.38,5.38,0,0,0-5.37-5.37Z"/><rect class="cls-1" x="34.13" y="27.49" width="217" height="243.09" rx="5.37" ry="5.37"/><path class="cls-1" d="M245.75,28.49a4.38,4.38,0,0,1,4.38,4.38V265.21a4.38,4.38,0,0,1-4.37,4.38H39.5a4.38,4.38,0,0,1-4.37-4.37V32.87a4.38,4.38,0,0,1,4.38-4.37H245.75m0-1H39.5a5.38,5.38,0,0,0-5.37,5.38V265.21a5.38,5.38,0,0,0,5.38,5.38H245.75a5.38,5.38,0,0,0,5.38-5.37V32.87a5.38,5.38,0,0,0-5.37-5.37Z"/><rect class="cls-2" x="34.13" y="34.4" width="217" height="243.09" rx="5.37" ry="5.37"/><rect class="cls-3" x="34.13" y="27.49" width="217" height="243.09" rx="5.37" ry="5.37"/><path class="cls-4" d="M112.75,105c24.08,5.4,39.52-4.1,64.91,1.08-1.4-20.94,8.06-53.1,8.25-98-47.86-7-51.45,5-84.33.81C101,54.29,107.69,75.44,112.75,105Z"/><path class="cls-5" d="M112.75,105c24.08,5.4,39.52-4.1,64.91,1.08-1.4-20.94,8.06-53.1,8.25-98-47.86-7-51.45,5-84.33.81C101,54.29,107.69,75.44,112.75,105Z"/><path class="cls-6" d="M112.75,105c24.08,5.4,39.52-4.1,64.91,1.08-1.4-20.94,8.06-53.1,8.25-98-47.86-7-51.45,5-84.33.81C101,54.29,107.69,75.44,112.75,105Z"/><ellipse class="cls-7" cx="145.19" cy="248.95" rx="82.18" ry="14.29"/><path class="cls-8" d="M219.25,158.12a1,1,0,0,1-.65-.28l-24.29-23.71a4,4,0,0,1-1.2-3.48,4.13,4.13,0,0,1,2.13-3.06l.18-.1c3.3-1.81,5.49-2.69,6.71-2.69l2.78.07c-2.7-10.78-7.31-18.47-16.16-27.08a12.14,12.14,0,0,1-2.3-14.25c.43-.86,1.46-2.57,2.37-4.07.69-1.14,1.34-2.22,1.53-2.6a15.12,15.12,0,0,1,24.27-3.79c15,15.29,23.4,32.07,26.24,52.75l11.19.3a4.29,4.29,0,0,1,4,2.88,4.34,4.34,0,0,1-1.23,4.77l-27.88,24.45a1,1,0,0,1-.66.25Z"/><path class="cls-8" d="M203.88,69.57a14,14,0,0,1,10,4.21c14.55,14.78,23.25,31.2,26.08,53l12,.32a3.37,3.37,0,0,1,2.13,5.9l-13.51,11.85-5,4.36-9.4,8.24-7-.35L195,133.41a3.09,3.09,0,0,1,.7-4.94c.44-.23,4.72-2.67,6.42-2.67h0l4,.11c-2.87-12.38-8-20.33-16.74-28.83A11.21,11.21,0,0,1,187.34,84c.75-1.48,3.42-5.73,3.9-6.67a14.09,14.09,0,0,1,12.64-7.76m0-2a16.08,16.08,0,0,0-14.42,8.85c-.18.35-.88,1.51-1.5,2.54-1,1.59-2,3.24-2.4,4.13a13.13,13.13,0,0,0,2.5,15.42c8.35,8.12,12.86,15.4,15.55,25.33l-1.38,0h-.1c-1,0-2.64.32-7.19,2.81l-.17.09a5.13,5.13,0,0,0-2.65,3.8,5,5,0,0,0,1.49,4.34l24.29,23.71a2,2,0,0,0,1.3.57l7,.35h.1a2,2,0,0,0,1.32-.5l9.4-8.24,5-4.36,13.51-11.85a5.37,5.37,0,0,0-3.4-9.4l-10.34-.28c-3-20.52-11.4-37.24-26.4-52.48a16,16,0,0,0-11.45-4.81Z"/><path class="cls-8" d="M60.39,167.46a1,1,0,0,1-.54-.16L28.58,147.38a4.37,4.37,0,0,1,1.57-8l10.91-2c.62-21.19,7.56-39.77,21.18-56.75l-.15-.23-6.41-6.11a4.37,4.37,0,0,1,3-7.53l37.14.54a1,1,0,0,1,.88.55l3.78,7.43a1,1,0,0,1,.11.39l2.14,33.88a4,4,0,0,1-1.08,3,4.16,4.16,0,0,1-3,1.31h0a4,4,0,0,1-2.79-1.13l-7.62-7.26c-6.21,8.29-9.62,16-11.2,25.37l2.19-.4a3.25,3.25,0,0,1,.57,0c2.34,0,7.1,2.2,7.72,2.64a4.18,4.18,0,0,1,1.7,2.75,4,4,0,0,1-.78,3.06L68,166a1,1,0,0,1-.65.39l-6.82,1Z"/><path class="cls-8" d="M58.68,67.79h.05l37.08.54,3.78,7.43,2.14,33.88a3.08,3.08,0,0,1-3.1,3.29,3,3,0,0,1-2.1-.86l-8.43-8c-6.64,8.63-10.64,16.94-12.29,28.1l3.58-.65a2.2,2.2,0,0,1,.39,0c2,0,6.56,2,7.14,2.46a3.08,3.08,0,0,1,.7,4.39L67.21,165.43l-6.82,1-9.93-6.33-7.27-4.63-14.07-9a3.37,3.37,0,0,1,1.21-6.15L42,138.26c.49-22.41,8.12-41.18,21.51-57.62l-.06-.06a3.16,3.16,0,0,1-.6-.77L56.37,73.6a3.37,3.37,0,0,1,2.32-5.81m0-2A5.37,5.37,0,0,0,55,75l5.94,5.66c-13.24,16.76-20.07,35.07-20.84,55.87L30,138.41A5.37,5.37,0,0,0,28,148.22l14.07,9,7.27,4.63,9.93,6.33a2,2,0,0,0,1.07.31l.3,0,6.82-1a2,2,0,0,0,1.3-.78l20.41-27.13a5,5,0,0,0,1-3.81,5.18,5.18,0,0,0-2.11-3.41c-.77-.55-5.7-2.83-8.3-2.83a4.21,4.21,0,0,0-.75.06l-.77.14A54.37,54.37,0,0,1,88.35,107l6.8,6.48a5,5,0,0,0,3.48,1.41,5.16,5.16,0,0,0,3.75-1.63,5,5,0,0,0,1.35-3.79l-2.14-33.88a2,2,0,0,0-.21-.78L97.6,67.43a2,2,0,0,0-1.75-1.09l-37.08-.54Z"/><path class="cls-8" d="M200.58,130.71a2.09,2.09,0,0,1-.49-2.36,2.12,2.12,0,0,1,2-1.35l11.91.32-.28-1.48c-2.72-14.24-8.32-24.4-19.32-35.1a11,11,0,0,1-2.06-12.88A12.91,12.91,0,0,1,213,74.63c14.9,15.14,23.08,31.77,25.74,52.34l.13,1,13.07.35a2.16,2.16,0,0,1,1.36,3.78l-27,23.71Z"/><path class="cls-8" d="M203.88,72a11.56,11.56,0,0,1,8.3,3.49c14.9,15.14,22.74,31.07,25.4,51.64l.27,2.05,2.07.06,12,.32a.95.95,0,0,1,.6,1.66L239,143.05l-5,4.36-7.72,6.77-24.93-24.34a.9.9,0,0,1-.22-1,.91.91,0,0,1,.9-.59h0l10.34.28,3,.08-.57-3c-2.74-14.31-8.62-25-19.66-35.74a9.76,9.76,0,0,1-1.83-11.46A11.68,11.68,0,0,1,203.88,72m0-2.42a14.09,14.09,0,0,0-12.64,7.76,12.24,12.24,0,0,0,2.3,14.29c10.17,9.89,16.17,19.83,19,34.46l-10.34-.28h-.1a3.37,3.37,0,0,0-2.34,5.78l26.53,25.9,9.4-8.24,5-4.36L254.15,133a3.37,3.37,0,0,0-2.13-5.9l-12-.32c-2.83-21.83-11.53-38.25-26.08-53a14,14,0,0,0-10-4.21Z"/><path class="cls-8" d="M29.77,145.51a2.16,2.16,0,0,1,.78-3.94l12.68-2.3,0-1c.46-21.35,7.44-40,21.33-57l.71-.87-8.08-7.7a2.09,2.09,0,0,1-.52-2.36,2.12,2.12,0,0,1,2-1.36l36,.52,2.26,35.89a2.08,2.08,0,0,1-.56,1.6,2.26,2.26,0,0,1-1.62.7,2.09,2.09,0,0,1-1.46-.6l-10.18-9.7-.82,1.07c-8.45,11-12.81,21.68-14.12,34.7l-.16,1.6,11.59-2.1a2.4,2.4,0,0,1,.42,0,2.14,2.14,0,0,1,1.9,1.21,2.09,2.09,0,0,1-.21,2.25L60.09,164.84Z"/><path class="cls-8" d="M58.68,70.21h0l34.84.51,2.19,34.77a.88.88,0,0,1-.23.69,1,1,0,0,1-.74.32.88.88,0,0,1-.63-.27l-9.21-8.77L83,95.61l-1.64,2.13c-8.6,11.17-13,22.06-14.37,35.32l-.32,3.2,3.16-.57,10-1.81.2,0a.93.93,0,0,1,.82.54.89.89,0,0,1-.1,1L59.8,163.22l-8-5.12-7.27-4.63-14.07-9a.95.95,0,0,1,.34-1.73l11.71-2.12,1.95-.35,0-2c.46-21.07,7.34-39.47,21.05-56.26l1.42-1.74L65.3,78.77,58,71.85a.95.95,0,0,1,.65-1.63m0-2.42a3.37,3.37,0,0,0-2.32,5.81l7.27,6.92C50.19,97,42.52,115.8,42,138.26l-11.71,2.12a3.37,3.37,0,0,0-1.21,6.15l14.07,9,7.27,4.63,9.93,6.33,22.29-29.63a3.37,3.37,0,0,0-2.66-5.4,3.55,3.55,0,0,0-.63.06l-10,1.81c1.35-13.42,6-23.84,13.88-34.09L92.46,108a3.3,3.3,0,0,0,2.3.94,3.37,3.37,0,0,0,3.39-3.59l-2.33-37-37.08-.54Z"/><path class="cls-8" d="M31.28,143.76l14.19-2.57.06-2.86C46,117.47,53.06,99,66.34,82.74l2.05-2.51L59,71.3l33.5.49,2.11,33.44L82.85,94l-2.37,3.08C72,108.1,67.28,119.2,65.89,133l-.47,4.62L79.68,135,59.54,161.77Z"/><path class="cls-8" d="M61.56,72.34l30,.44,1.89,30-9.93-9.46-.8-.77-.68.88-2.37,3.08C70.84,108,66.28,119.19,64.9,132.85l-.47,4.62-.13,1.32,1.31-.24,11.74-2.13-18.05,24L34,144.29l11.68-2.12.8-.15,0-.82.06-2.86c.44-20.3,7.37-38.8,20.59-55l2.05-2.51.59-.72-.67-.64-7.52-7.17M59,71.3l9.37,8.93-2.05,2.51C53.06,99,46,117.47,45.53,138.33l-.06,2.86-14.19,2.57,28.25,18L79.68,135l-14.25,2.58.47-4.62C67.28,119.2,72,108.1,80.48,97.08L82.85,94l11.78,11.22L92.53,71.79,59,71.3Z"/><path class="cls-8" d="M109.06,253.58a4.47,4.47,0,0,1-3.39-1.6,4.27,4.27,0,0,1-.92-3.57l1.52-8.25c-17.1-5.54-29.19-13.83-41.35-28.38l-8.27,4.92a4.38,4.38,0,0,1-2.23.63,4.42,4.42,0,0,1-3.52-1.78,4.3,4.3,0,0,1-.67-3.83l10.51-35.56a1,1,0,0,1,.78-.7l6.77-1.22.18,0,.21,0,33.2,7.07a4.08,4.08,0,0,1,1.24,7.5c-.29.2-3.25,2.17-3.62,2.39L95,193.91c5.59,5.89,9.62,9.12,17.56,12.37l1.27-6.9A16.56,16.56,0,0,1,116,195.1l.2-.32a4.08,4.08,0,0,1,3.6-2.11,4,4,0,0,1,3.43,1.9l18.16,28.69a1,1,0,0,1,.15.49l.25,5.91a1,1,0,0,1-.4.84l-29.7,22.2a4.32,4.32,0,0,1-2.6.88Z"/><path class="cls-8" d="M68.47,175.22l33.2,7.07a3.08,3.08,0,0,1,.93,5.67s-3.26,2.18-3.62,2.39l-5.61,3.34c6.62,7.08,10.78,10.4,19.9,14l1.49-8.1c.21-1.13,2.13-4,2.28-4.3a3.09,3.09,0,0,1,2.72-1.59,3,3,0,0,1,2.59,1.44l18.16,28.69.25,5.91L128,239.27,123,243l-11.9,8.9a3.32,3.32,0,0,1-2,.68,3.38,3.38,0,0,1-3.33-4l1.68-9.11c-18.23-5.75-30.28-14.47-42.27-29l-9,5.36a3.36,3.36,0,0,1-5-3.85l4.49-15.2.56-1.91,5.46-18.45,6.77-1.22m0-2a2,2,0,0,0-.35,0l-6.77,1.22a2,2,0,0,0-1.56,1.4l-5.46,18.45-.56,1.91-4.49,15.2a5.3,5.3,0,0,0,.83,4.72,5.34,5.34,0,0,0,7.06,1.42l7.54-4.49c11.91,14.07,23.82,22.25,40.42,27.76l-1.36,7.39a5.26,5.26,0,0,0,1.13,4.39,5.48,5.48,0,0,0,4.16,2,5.31,5.31,0,0,0,3.2-1.08l11.9-8.9,5-3.73L142,231.3a2,2,0,0,0,.8-1.69l-.25-5.91a2,2,0,0,0-.31-1L124.05,194a5.09,5.09,0,0,0-8.76.27l-.17.26a16.34,16.34,0,0,0-2.32,4.62l-1,5.68c-6.55-2.8-10.23-5.61-15.21-10.75l3.46-2.06c.37-.22,2.85-1.88,3.67-2.42a5.08,5.08,0,0,0-1.59-9.31l-33.2-7.07a2,2,0,0,0-.42,0Z"/><path class="cls-8" d="M109.06,251.37a2.24,2.24,0,0,1-1.7-.81,2.07,2.07,0,0,1-.44-1.75l1.87-10.17-1-.32c-17.37-5.48-29.45-13.76-41.7-28.61l-.66-.8-9.9,5.89a2.13,2.13,0,0,1-1.1.32,2.2,2.2,0,0,1-1.75-.9,2.09,2.09,0,0,1-.32-1.89l10.2-34.49,35.17,7.49a2.16,2.16,0,0,1,.65,4l-11.53,6.86,1,1.1c7.28,7.84,12.75,12.31,24.09,16.49l1.35.5L116,199.78a2.12,2.12,0,0,1,2.14-1.77,2.08,2.08,0,0,1,1.8,1l19.23,30.39-28.8,21.53a2.1,2.1,0,0,1-1.28.44Z"/><path class="cls-8" d="M63.38,179.27l34.08,7.26a.95.95,0,0,1,.29,1.74l-10.24,6.09-2.57,1.53,2,2.2c7.26,7.82,13.05,12.56,24.56,16.8l2.7,1,.52-2.82L117.15,200a1,1,0,0,1,1-.78.88.88,0,0,1,.78.44l18.63,29.44-11,8.23-5,3.73-11.9,8.9a.91.91,0,0,1-.55.2,1,1,0,0,1-.76-.37.87.87,0,0,1-.18-.76l1.68-9.11.39-2.1-2-.64C91,231.77,79.1,223.59,67,208.94l-1.32-1.6-1.78,1.06-9,5.36a.93.93,0,0,1-.48.15,1,1,0,0,1-.78-.41.87.87,0,0,1-.13-.82L58,197.48l.56-1.91,4.82-16.3m-1.69-2.83-5.46,18.45-.56,1.91L51.19,212a3.36,3.36,0,0,0,5,3.85l9-5.36c12,14.52,24,23.24,42.27,29l-1.68,9.11a3.38,3.38,0,0,0,3.33,4,3.32,3.32,0,0,0,2-.68L123,243l5-3.73,12.81-9.57-19.83-31.33a3.3,3.3,0,0,0-2.82-1.57,3.34,3.34,0,0,0-3.33,2.76l-2.41,13.06c-10.59-3.9-16-8-23.62-16.17L99,190.35a3.37,3.37,0,0,0-1-6.19L61.7,176.44Z"/><path class="cls-8" d="M111.42,237.07l-3-.93c-17.47-5.51-28.9-13.68-40.62-27.88l-1.91-2.31-11.3,6.72,9.5-32.13,32.77,7-13.68,8.14s8.65,12.81,27.93,20.25l3.9,1.43,3.1-16.82,17.92,28.31-26.84,20.06Z"/><path class="cls-8" d="M64.83,181.7,94.2,188l-11.48,6.83-.91.54.59.88c.36.53,9.05,13.15,28.41,20.63l3.9,1.43,1.11.41.22-1.17,2.64-14.31,16.06,25.37-24.05,18,1.72-9.31.16-.87-.84-.27-3-.93c-16.93-5.34-28.19-13.07-40.15-27.56l-1.91-2.31-.55-.66-.74.44-9.1,5.42,8.51-28.8m-.7-1.17-9.5,32.13,11.3-6.72,1.91,2.31c11.72,14.2,23.15,22.37,40.62,27.88l3,.93-2.18,11.82,26.84-20.06-17.92-28.31-3.1,16.82-3.9-1.43c-19.27-7.44-27.93-20.25-27.93-20.25l13.68-8.14-32.77-7Z"/><path class="cls-8" d="M183.68,252.6a4.34,4.34,0,0,1-2.46-.78l-30.59-21a1,1,0,0,1-.43-.76l-.39-5.89a1,1,0,0,1,.13-.57l17-29.41a4,4,0,0,1,3.52-2,4.11,4.11,0,0,1,3.28,1.62l.23.27c1.32,1.59,2.7,3.37,3,4.55l1,4.23c6.29-3.59,10.88-7,15.8-13.18l-2.77-1.16a42,42,0,0,1-3.85-1.93,4.73,4.73,0,0,1-2.26-4.42,3.84,3.84,0,0,1,2.56-3.25l31.83-11.81a1,1,0,0,1,.35-.06l7,.51a1,1,0,0,1,.83.58l15.55,33.66a4.28,4.28,0,0,1-.27,4.17,4.36,4.36,0,0,1-3.67,2h0a4.41,4.41,0,0,1-1.69-.34l-11.06-4.56c-10.22,15.53-22.8,26-40.59,33.88L188,247.25a4.26,4.26,0,0,1-.83,3.67A4.45,4.45,0,0,1,183.68,252.6Z"/><path class="cls-8" d="M219.53,168.06l6.91.51L242,202.23a3.36,3.36,0,0,1-4.34,4.53l-11.82-4.88c-10.43,16.1-23.47,26.77-41.37,34.54L187,247.47a3.38,3.38,0,0,1-3.29,4.13,3.33,3.33,0,0,1-1.89-.6l-13.45-9.22-4.66-3.19L151.2,230l-.39-5.89,17-29.41a3,3,0,0,1,2.66-1.54,3.1,3.1,0,0,1,2.48,1.22c.25.33,2.72,3.14,3,4.44l1.26,5.54c7.85-4.38,12.67-8.06,18.07-15.13l-4-1.67c-.6-.25-2.91-1.35-3.7-1.85-2.36-1.48-2.51-4.9.12-5.88l31.83-11.81m0-2a2,2,0,0,0-.7.12L187,178a4.82,4.82,0,0,0-3.21,4.08,5.74,5.74,0,0,0,2.72,5.37,42.62,42.62,0,0,0,4,2l1.53.64a47.66,47.66,0,0,1-13.51,11.23l-.66-2.9c-.25-1.11-1.17-2.55-3.17-5l-.21-.25a5.11,5.11,0,0,0-4.07-2,5,5,0,0,0-4.39,2.54l-17,29.41a2,2,0,0,0-.26,1.13l.39,5.89a2,2,0,0,0,.86,1.52l12.48,8.55,4.66,3.19,13.45,9.22a5.34,5.34,0,0,0,3,1,5.46,5.46,0,0,0,4.23-2,5.32,5.32,0,0,0,1-4.52l-2.15-9.45c17.1-7.7,29.82-18.31,39.81-33.22l10.3,4.25a5.33,5.33,0,0,0,6.58-2.09,5.33,5.33,0,0,0,.34-5.13l-15.55-33.66a2,2,0,0,0-1.67-1.16l-6.91-.51Z"/><path class="cls-8" d="M183.68,250.39a2.12,2.12,0,0,1-1.21-.39l-29.66-20.33,18-31.15a2.1,2.1,0,0,1,1.85-1.08,2.14,2.14,0,0,1,2.12,1.68l2.74,12.08,1.39-.73c10.18-5.32,16.23-10.31,22.34-18.42l.94-1.25L192,186.62a2.16,2.16,0,0,1,.07-4l33.72-12.51,15.08,32.65a2.08,2.08,0,0,1-.13,2.05,2.19,2.19,0,0,1-1.81,1h0a2.22,2.22,0,0,1-.84-.17l-12.75-5.26-.55.84C214.62,217,202,227.48,184,235.31l-.92.4,2.73,12a2.1,2.1,0,0,1-.4,1.81A2.23,2.23,0,0,1,183.68,250.39Z"/><path class="cls-8" d="M225.19,171.62l14.61,31.63a.88.88,0,0,1,0,.89,1,1,0,0,1-.79.46,1,1,0,0,1-.38-.08l-11.82-4.88-1.86-.77-1.09,1.69c-10.06,15.53-22.49,25.91-40.3,33.63l-1.84.8.44,2L184.62,248a.87.87,0,0,1-.16.78,1,1,0,0,1-.77.39.92.92,0,0,1-.53-.18l-13.45-9.22-4.66-3.19-10.63-7.29,17.41-30.18a.88.88,0,0,1,.8-.48.94.94,0,0,1,.94.74l2.4,10.55.7,3.06,2.78-1.46c10.36-5.41,16.52-10.5,22.74-18.77l1.88-2.5-2.89-1.19-8.69-3.59a.95.95,0,0,1,0-1.77l32.67-12.12m1.26-3-34.77,12.9a3.37,3.37,0,0,0-.11,6.27l8.69,3.59c-6.33,8.41-12.49,13.14-21.93,18.08l-2.4-10.55a3.34,3.34,0,0,0-3.3-2.62,3.3,3.3,0,0,0-2.9,1.69L151.2,230l12.48,8.55,4.66,3.19L181.79,251a3.33,3.33,0,0,0,1.89.6,3.38,3.38,0,0,0,3.29-4.13l-2.51-11.06c17.9-7.77,30.94-18.44,41.37-34.54l11.82,4.88a3.36,3.36,0,0,0,4.34-4.53l-15.55-33.66Z"/><path class="cls-8" d="M155.85,229l16.74-29,3.33,14.65,4-2.11c9.77-5.1,16.45-10.23,23.11-19.08l2.72-3.61-12.56-5.19L224.63,173l14.06,30.43-14.21-5.88L222.89,200c-10.22,15.77-22.68,25.79-39.82,33.23l-2.66,1.16,1.83,14.56Z"/><path class="cls-8" d="M224.11,174.24l12.6,27.27-11.85-4.9-.77-.32-.45.7-1.58,2.44c-9.83,15.17-22,25.3-39.38,32.86L180,233.44l-.69.3.09.74L181,246.69l-23.79-18,15-26,2.76,12.16.29,1.27,1.15-.6,4-2.11c10.53-5.5,17.1-10.93,23.44-19.36l2.72-3.61.78-1-1.19-.49L196,184.68l28.15-10.44m.52-1.26-31.41,11.65,12.56,5.19-2.72,3.61c-6.66,8.85-13.34,14-23.11,19.08l-4,2.11L172.59,200l-16.74,29,26.39,19.94-1.83-14.56,2.66-1.16c17.14-7.44,29.61-17.46,39.82-33.23l1.58-2.44,14.21,5.88L224.63,173Z"/><path class="cls-9" d="M219.25,158.12a1,1,0,0,1-.65-.28l-24.29-23.71a4,4,0,0,1-1.2-3.48,4.13,4.13,0,0,1,2.13-3.06l.18-.1c3.3-1.81,5.49-2.69,6.71-2.69l2.78.07c-2.7-10.78-7.31-18.47-16.16-27.08a12.14,12.14,0,0,1-2.3-14.25c.43-.86,1.46-2.57,2.37-4.07.69-1.14,1.34-2.22,1.53-2.6a15.12,15.12,0,0,1,24.27-3.79c15,15.29,23.4,32.07,26.24,52.75l11.19.3a4.29,4.29,0,0,1,4,2.88,4.34,4.34,0,0,1-1.23,4.77l-27.88,24.45a1,1,0,0,1-.66.25Z"/><path class="cls-10" d="M203.88,69.57a14,14,0,0,1,10,4.21c14.55,14.78,23.25,31.2,26.08,53l12,.32a3.37,3.37,0,0,1,2.13,5.9l-13.51,11.85-5,4.36-9.4,8.24-7-.35L195,133.41a3.09,3.09,0,0,1,.7-4.94c.44-.23,4.72-2.67,6.42-2.67h0l4,.11c-2.87-12.38-8-20.33-16.74-28.83A11.21,11.21,0,0,1,187.34,84c.75-1.48,3.42-5.73,3.9-6.67a14.09,14.09,0,0,1,12.64-7.76m0-2a16.08,16.08,0,0,0-14.42,8.85c-.18.35-.88,1.51-1.5,2.54-1,1.59-2,3.24-2.4,4.13a13.13,13.13,0,0,0,2.5,15.42c8.35,8.12,12.86,15.4,15.55,25.33l-1.38,0h-.1c-1,0-2.64.32-7.19,2.81l-.17.09a5.13,5.13,0,0,0-2.65,3.8,5,5,0,0,0,1.49,4.34l24.29,23.71a2,2,0,0,0,1.3.57l7,.35h.1a2,2,0,0,0,1.32-.5l9.4-8.24,5-4.36,13.51-11.85a5.37,5.37,0,0,0-3.4-9.4l-10.34-.28c-3-20.52-11.4-37.24-26.4-52.48a16,16,0,0,0-11.45-4.81Z"/><path class="cls-11" d="M60.39,167.46a1,1,0,0,1-.54-.16L28.58,147.38a4.37,4.37,0,0,1,1.57-8l10.91-2c.62-21.19,7.56-39.77,21.18-56.75l-.15-.23-6.41-6.11a4.37,4.37,0,0,1,3-7.53l37.14.54a1,1,0,0,1,.88.55l3.78,7.43a1,1,0,0,1,.11.39l2.14,33.88a4,4,0,0,1-1.08,3,4.16,4.16,0,0,1-3,1.31h0a4,4,0,0,1-2.79-1.13l-7.62-7.26c-6.21,8.29-9.62,16-11.2,25.37l2.19-.4a3.25,3.25,0,0,1,.57,0c2.34,0,7.1,2.2,7.72,2.64a4.18,4.18,0,0,1,1.7,2.75,4,4,0,0,1-.78,3.06L68,166a1,1,0,0,1-.65.39l-6.82,1Z"/><path class="cls-10" d="M58.68,67.79h.05l37.08.54,3.78,7.43,2.14,33.88a3.08,3.08,0,0,1-3.1,3.29,3,3,0,0,1-2.1-.86l-8.43-8c-6.64,8.63-10.64,16.94-12.29,28.1l3.58-.65a2.2,2.2,0,0,1,.39,0c2,0,6.56,2,7.14,2.46a3.08,3.08,0,0,1,.7,4.39L67.21,165.43l-6.82,1-9.93-6.33-7.27-4.63-14.07-9a3.37,3.37,0,0,1,1.21-6.15L42,138.26c.49-22.41,8.12-41.18,21.51-57.62l-.06-.06a3.16,3.16,0,0,1-.6-.77L56.37,73.6a3.37,3.37,0,0,1,2.32-5.81m0-2A5.37,5.37,0,0,0,55,75l5.94,5.66c-13.24,16.76-20.07,35.07-20.84,55.87L30,138.41A5.37,5.37,0,0,0,28,148.22l14.07,9,7.27,4.63,9.93,6.33a2,2,0,0,0,1.07.31l.3,0,6.82-1a2,2,0,0,0,1.3-.78l20.41-27.13a5,5,0,0,0,1-3.81,5.18,5.18,0,0,0-2.11-3.41c-.77-.55-5.7-2.83-8.3-2.83a4.21,4.21,0,0,0-.75.06l-.77.14A54.37,54.37,0,0,1,88.35,107l6.8,6.48a5,5,0,0,0,3.48,1.41,5.16,5.16,0,0,0,3.75-1.63,5,5,0,0,0,1.35-3.79l-2.14-33.88a2,2,0,0,0-.21-.78L97.6,67.43a2,2,0,0,0-1.75-1.09l-37.08-.54Z"/><path class="cls-12" d="M200.58,130.71a2.09,2.09,0,0,1-.49-2.36,2.12,2.12,0,0,1,2-1.35l11.91.32-.28-1.48c-2.72-14.24-8.32-24.4-19.32-35.1a11,11,0,0,1-2.06-12.88A12.91,12.91,0,0,1,213,74.63c14.9,15.14,23.08,31.77,25.74,52.34l.13,1,13.07.35a2.16,2.16,0,0,1,1.36,3.78l-27,23.71Z"/><path class="cls-13" d="M203.88,72a11.56,11.56,0,0,1,8.3,3.49c14.9,15.14,22.74,31.07,25.4,51.64l.27,2.05,2.07.06,12,.32a.95.95,0,0,1,.6,1.66L239,143.05l-5,4.36-7.72,6.77-24.93-24.34a.9.9,0,0,1-.22-1,.91.91,0,0,1,.9-.59h0l10.34.28,3,.08-.57-3c-2.74-14.31-8.62-25-19.66-35.74a9.76,9.76,0,0,1-1.83-11.46A11.68,11.68,0,0,1,203.88,72m0-2.42a14.09,14.09,0,0,0-12.64,7.76,12.24,12.24,0,0,0,2.3,14.29c10.17,9.89,16.17,19.83,19,34.46l-10.34-.28h-.1a3.37,3.37,0,0,0-2.34,5.78l26.53,25.9,9.4-8.24,5-4.36L254.15,133a3.37,3.37,0,0,0-2.13-5.9l-12-.32c-2.83-21.83-11.53-38.25-26.08-53a14,14,0,0,0-10-4.21Z"/><path class="cls-14" d="M29.77,145.51a2.16,2.16,0,0,1,.78-3.94l12.68-2.3,0-1c.46-21.35,7.44-40,21.33-57l.71-.87-8.08-7.7a2.09,2.09,0,0,1-.52-2.36,2.12,2.12,0,0,1,2-1.36l36,.52,2.26,35.89a2.08,2.08,0,0,1-.56,1.6,2.26,2.26,0,0,1-1.62.7,2.09,2.09,0,0,1-1.46-.6l-10.18-9.7-.82,1.07c-8.45,11-12.81,21.68-14.12,34.7l-.16,1.6,11.59-2.1a2.4,2.4,0,0,1,.42,0,2.14,2.14,0,0,1,1.9,1.21,2.09,2.09,0,0,1-.21,2.25L60.09,164.84Z"/><path class="cls-15" d="M58.68,70.21h0l34.84.51,2.19,34.77a.88.88,0,0,1-.23.69,1,1,0,0,1-.74.32.88.88,0,0,1-.63-.27l-9.21-8.77L83,95.61l-1.64,2.13c-8.6,11.17-13,22.06-14.37,35.32l-.32,3.2,3.16-.57,10-1.81.2,0a.93.93,0,0,1,.82.54.89.89,0,0,1-.1,1L59.8,163.22l-8-5.12-7.27-4.63-14.07-9a.95.95,0,0,1,.34-1.73l11.71-2.12,1.95-.35,0-2c.46-21.07,7.34-39.47,21.05-56.26l1.42-1.74L65.3,78.77,58,71.85a.95.95,0,0,1,.65-1.63m0-2.42a3.37,3.37,0,0,0-2.32,5.81l7.27,6.92C50.19,97,42.52,115.8,42,138.26l-11.71,2.12a3.37,3.37,0,0,0-1.21,6.15l14.07,9,7.27,4.63,9.93,6.33,22.29-29.63a3.37,3.37,0,0,0-2.66-5.4,3.55,3.55,0,0,0-.63.06l-10,1.81c1.35-13.42,6-23.84,13.88-34.09L92.46,108a3.3,3.3,0,0,0,2.3.94,3.37,3.37,0,0,0,3.39-3.59l-2.33-37-37.08-.54Z"/><g class="cls-16"><path class="cls-17" d="M31.28,143.76l14.19-2.57.06-2.86C46,117.47,53.06,99,66.34,82.74l2.05-2.51L59,71.3l33.5.49,2.11,33.44L82.85,94l-2.37,3.08C72,108.1,67.28,119.2,65.89,133l-.47,4.62L79.68,135,59.54,161.77Z"/></g><path class="cls-18" d="M109.06,253.58a4.47,4.47,0,0,1-3.39-1.6,4.27,4.27,0,0,1-.92-3.57l1.52-8.25c-17.1-5.54-29.19-13.83-41.35-28.38l-8.27,4.92a4.38,4.38,0,0,1-2.23.63,4.42,4.42,0,0,1-3.52-1.78,4.3,4.3,0,0,1-.67-3.83l10.51-35.56a1,1,0,0,1,.78-.7l6.77-1.22.18,0,.21,0,33.2,7.07a4.08,4.08,0,0,1,1.24,7.5c-.29.2-3.25,2.17-3.62,2.39L95,193.91c5.59,5.89,9.62,9.12,17.56,12.37l1.27-6.9A16.56,16.56,0,0,1,116,195.1l.2-.32a4.08,4.08,0,0,1,3.6-2.11,4,4,0,0,1,3.43,1.9l18.16,28.69a1,1,0,0,1,.15.49l.25,5.91a1,1,0,0,1-.4.84l-29.7,22.2a4.32,4.32,0,0,1-2.6.88Z"/><path class="cls-10" d="M68.47,175.22l33.2,7.07a3.08,3.08,0,0,1,.93,5.67s-3.26,2.18-3.62,2.39l-5.61,3.34c6.62,7.08,10.78,10.4,19.9,14l1.49-8.1c.21-1.13,2.13-4,2.28-4.3a3.09,3.09,0,0,1,2.72-1.59,3,3,0,0,1,2.59,1.44l18.16,28.69.25,5.91L128,239.27,123,243l-11.9,8.9a3.32,3.32,0,0,1-2,.68,3.38,3.38,0,0,1-3.33-4l1.68-9.11c-18.23-5.75-30.28-14.47-42.27-29l-9,5.36a3.36,3.36,0,0,1-5-3.85l4.49-15.2.56-1.91,5.46-18.45,6.77-1.22m0-2a2,2,0,0,0-.35,0l-6.77,1.22a2,2,0,0,0-1.56,1.4l-5.46,18.45-.56,1.91-4.49,15.2a5.3,5.3,0,0,0,.83,4.72,5.34,5.34,0,0,0,7.06,1.42l7.54-4.49c11.91,14.07,23.82,22.25,40.42,27.76l-1.36,7.39a5.26,5.26,0,0,0,1.13,4.39,5.48,5.48,0,0,0,4.16,2,5.31,5.31,0,0,0,3.2-1.08l11.9-8.9,5-3.73L142,231.3a2,2,0,0,0,.8-1.69l-.25-5.91a2,2,0,0,0-.31-1L124.05,194a5.09,5.09,0,0,0-8.76.27l-.17.26a16.34,16.34,0,0,0-2.32,4.62l-1,5.68c-6.55-2.8-10.23-5.61-15.21-10.75l3.46-2.06c.37-.22,2.85-1.88,3.67-2.42a5.08,5.08,0,0,0-1.59-9.31l-33.2-7.07a2,2,0,0,0-.42,0Z"/><path class="cls-19" d="M109.06,251.37a2.24,2.24,0,0,1-1.7-.81,2.07,2.07,0,0,1-.44-1.75l1.87-10.17-1-.32c-17.37-5.48-29.45-13.76-41.7-28.61l-.66-.8-9.9,5.89a2.13,2.13,0,0,1-1.1.32,2.2,2.2,0,0,1-1.75-.9,2.09,2.09,0,0,1-.32-1.89l10.2-34.49,35.17,7.49a2.16,2.16,0,0,1,.65,4l-11.53,6.86,1,1.1c7.28,7.84,12.75,12.31,24.09,16.49l1.35.5L116,199.78a2.12,2.12,0,0,1,2.14-1.77,2.08,2.08,0,0,1,1.8,1l19.23,30.39-28.8,21.53a2.1,2.1,0,0,1-1.28.44Z"/><path class="cls-20" d="M63.38,179.27l34.08,7.26a.95.95,0,0,1,.29,1.74l-10.24,6.09-2.57,1.53,2,2.2c7.26,7.82,13.05,12.56,24.56,16.8l2.7,1,.52-2.82L117.15,200a1,1,0,0,1,1-.78.88.88,0,0,1,.78.44l18.63,29.44-11,8.23-5,3.73-11.9,8.9a.91.91,0,0,1-.55.2,1,1,0,0,1-.76-.37.87.87,0,0,1-.18-.76l1.68-9.11.39-2.1-2-.64C91,231.77,79.1,223.59,67,208.94l-1.32-1.6-1.78,1.06-9,5.36a.93.93,0,0,1-.48.15,1,1,0,0,1-.78-.41.87.87,0,0,1-.13-.82L58,197.48l.56-1.91,4.82-16.3m-1.69-2.83-5.46,18.45-.56,1.91L51.19,212a3.36,3.36,0,0,0,5,3.85l9-5.36c12,14.52,24,23.24,42.27,29l-1.68,9.11a3.38,3.38,0,0,0,3.33,4,3.32,3.32,0,0,0,2-.68L123,243l5-3.73,12.81-9.57-19.83-31.33a3.3,3.3,0,0,0-2.82-1.57,3.34,3.34,0,0,0-3.33,2.76l-2.41,13.06c-10.59-3.9-16-8-23.62-16.17L99,190.35a3.37,3.37,0,0,0-1-6.19L61.7,176.44Z"/><g class="cls-16"><path class="cls-21" d="M111.42,237.07l-3-.93c-17.47-5.51-28.9-13.68-40.62-27.88l-1.91-2.31-11.3,6.72,9.5-32.13,32.77,7-13.68,8.14s8.65,12.81,27.93,20.25l3.9,1.43,3.1-16.82,17.92,28.31-26.84,20.06Z"/></g><path class="cls-22" d="M183.68,252.6a4.34,4.34,0,0,1-2.46-.78l-30.59-21a1,1,0,0,1-.43-.76l-.39-5.89a1,1,0,0,1,.13-.57l17-29.41a4,4,0,0,1,3.52-2,4.11,4.11,0,0,1,3.28,1.62l.23.27c1.32,1.59,2.7,3.37,3,4.55l1,4.23c6.29-3.59,10.88-7,15.8-13.18l-2.77-1.16a42,42,0,0,1-3.85-1.93,4.73,4.73,0,0,1-2.26-4.42,3.84,3.84,0,0,1,2.56-3.25l31.83-11.81a1,1,0,0,1,.35-.06l7,.51a1,1,0,0,1,.83.58l15.55,33.66a4.28,4.28,0,0,1-.27,4.17,4.36,4.36,0,0,1-3.67,2h0a4.41,4.41,0,0,1-1.69-.34l-11.06-4.56c-10.22,15.53-22.8,26-40.59,33.88L188,247.25a4.26,4.26,0,0,1-.83,3.67A4.45,4.45,0,0,1,183.68,252.6Z"/><path class="cls-10" d="M219.53,168.06l6.91.51L242,202.23a3.36,3.36,0,0,1-4.34,4.53l-11.82-4.88c-10.43,16.1-23.47,26.77-41.37,34.54L187,247.47a3.38,3.38,0,0,1-3.29,4.13,3.33,3.33,0,0,1-1.89-.6l-13.45-9.22-4.66-3.19L151.2,230l-.39-5.89,17-29.41a3,3,0,0,1,2.66-1.54,3.1,3.1,0,0,1,2.48,1.22c.25.33,2.72,3.14,3,4.44l1.26,5.54c7.85-4.38,12.67-8.06,18.07-15.13l-4-1.67c-.6-.25-2.91-1.35-3.7-1.85-2.36-1.48-2.51-4.9.12-5.88l31.83-11.81m0-2a2,2,0,0,0-.7.12L187,178a4.82,4.82,0,0,0-3.21,4.08,5.74,5.74,0,0,0,2.72,5.37,42.62,42.62,0,0,0,4,2l1.53.64a47.66,47.66,0,0,1-13.51,11.23l-.66-2.9c-.25-1.11-1.17-2.55-3.17-5l-.21-.25a5.11,5.11,0,0,0-4.07-2,5,5,0,0,0-4.39,2.54l-17,29.41a2,2,0,0,0-.26,1.13l.39,5.89a2,2,0,0,0,.86,1.52l12.48,8.55,4.66,3.19,13.45,9.22a5.34,5.34,0,0,0,3,1,5.46,5.46,0,0,0,4.23-2,5.32,5.32,0,0,0,1-4.52l-2.15-9.45c17.1-7.7,29.82-18.31,39.81-33.22l10.3,4.25a5.33,5.33,0,0,0,6.58-2.09,5.33,5.33,0,0,0,.34-5.13l-15.55-33.66a2,2,0,0,0-1.67-1.16l-6.91-.51Z"/><path class="cls-23" d="M183.68,250.39a2.12,2.12,0,0,1-1.21-.39l-29.66-20.33,18-31.15a2.1,2.1,0,0,1,1.85-1.08,2.14,2.14,0,0,1,2.12,1.68l2.74,12.08,1.39-.73c10.18-5.32,16.23-10.31,22.34-18.42l.94-1.25L192,186.62a2.16,2.16,0,0,1,.07-4l33.72-12.51,15.08,32.65a2.08,2.08,0,0,1-.13,2.05,2.19,2.19,0,0,1-1.81,1h0a2.22,2.22,0,0,1-.84-.17l-12.75-5.26-.55.84C214.62,217,202,227.48,184,235.31l-.92.4,2.73,12a2.1,2.1,0,0,1-.4,1.81A2.23,2.23,0,0,1,183.68,250.39Z"/><path class="cls-24" d="M225.19,171.62l14.61,31.63a.88.88,0,0,1,0,.89,1,1,0,0,1-.79.46,1,1,0,0,1-.38-.08l-11.82-4.88-1.86-.77-1.09,1.69c-10.06,15.53-22.49,25.91-40.3,33.63l-1.84.8.44,2L184.62,248a.87.87,0,0,1-.16.78,1,1,0,0,1-.77.39.92.92,0,0,1-.53-.18l-13.45-9.22-4.66-3.19-10.63-7.29,17.41-30.18a.88.88,0,0,1,.8-.48.94.94,0,0,1,.94.74l2.4,10.55.7,3.06,2.78-1.46c10.36-5.41,16.52-10.5,22.74-18.77l1.88-2.5-2.89-1.19-8.69-3.59a.95.95,0,0,1,0-1.77l32.67-12.12m1.26-3-34.77,12.9a3.37,3.37,0,0,0-.11,6.27l8.69,3.59c-6.33,8.41-12.49,13.14-21.93,18.08l-2.4-10.55a3.34,3.34,0,0,0-3.3-2.62,3.3,3.3,0,0,0-2.9,1.69L151.2,230l12.48,8.55,4.66,3.19L181.79,251a3.33,3.33,0,0,0,1.89.6,3.38,3.38,0,0,0,3.29-4.13l-2.51-11.06c17.9-7.77,30.94-18.44,41.37-34.54l11.82,4.88a3.36,3.36,0,0,0,4.34-4.53l-15.55-33.66Z"/><g class="cls-16"><path class="cls-25" d="M155.85,229l16.74-29,3.33,14.65,4-2.11c9.77-5.1,16.45-10.23,23.11-19.08l2.72-3.61-12.56-5.19L224.63,173l14.06,30.43-14.21-5.88L222.89,200c-10.22,15.77-22.68,25.79-39.82,33.23l-2.66,1.16,1.83,14.56Z"/></g><path class="cls-26" d="M216.7,81.32c-14.25-19.5-29.62-.12-19,9.47,12.3,11.11,19.25,27.78,19.14,41.82l20.56.46C234.7,97.82,216.82,81.48,216.7,81.32Z"/><path class="cls-27" d="M126.31,72.74a2.79,2.79,0,0,1-2.76-3.22l2.88-18.36L112.95,38.38a2.79,2.79,0,0,1,1.48-4.78l18.35-2.93,8-16.78a2.79,2.79,0,0,1,5-.07l8.46,16.54,18.43,2.41a2.79,2.79,0,0,1,1.61,4.73L161.14,50.66l3.4,18.27a2.79,2.79,0,0,1-2.74,3.3h0a2.77,2.77,0,0,1-1.26-.3L144,63.52,127.64,72.4A2.8,2.8,0,0,1,126.31,72.74Z"/><path class="cls-10" d="M143.28,14a1.09,1.09,0,0,1,1,.6l8.86,17.33,19.3,2.52a1.1,1.1,0,0,1,.64,1.87L159.32,50.1l3.56,19.14a1.1,1.1,0,0,1-1.59,1.19l-17.36-8.81-17.1,9.3a1.1,1.1,0,0,1-1.62-1.14l3-19.23L114.1,37.16a1.1,1.1,0,0,1,.58-1.89l19.22-3.07,8.37-17.58a1.09,1.09,0,0,1,1-.63m0-3.37h0a4.44,4.44,0,0,0-4,2.55l-7.61,16-17.48,2.79a4.47,4.47,0,0,0-2.37,7.66l12.85,12.17-2.74,17.48a4.47,4.47,0,0,0,6.56,4.62L144,65.42l15.78,8a4.47,4.47,0,0,0,6.42-4.81L163,51.23l12.5-12.53a4.47,4.47,0,0,0-2.59-7.59l-17.55-2.3-8.06-15.76a4.45,4.45,0,0,0-4-2.44Z"/><path class="cls-28" d="M143.28,14a1.09,1.09,0,0,1,1,.6l8.86,17.33,19.3,2.52a1.1,1.1,0,0,1,.64,1.87L159.32,50.1l3.56,19.14a1.1,1.1,0,0,1-1.59,1.19l-17.36-8.81-17.1,9.3a1.1,1.1,0,0,1-1.62-1.14l3-19.23L114.1,37.16a1.1,1.1,0,0,1,.58-1.89l19.22-3.07,8.37-17.58a1.09,1.09,0,0,1,1-.63m0-1.18h0a2.26,2.26,0,0,0-2.06,1.3l-8.1,17-18.61,3A2.28,2.28,0,0,0,113.29,38L127,51,124.06,69.6A2.28,2.28,0,0,0,127.4,72l16.56-9,16.81,8.53A2.28,2.28,0,0,0,164,69L160.59,50.5,173.9,37.15a2.28,2.28,0,0,0-1.32-3.87l-18.69-2.44L145.31,14a2.27,2.27,0,0,0-2-1.24Z"/><path class="cls-29" d="M114.77,36.33l2.1,2c1.47-.94,3-2,4.59-3.06Z"/><path class="cls-30" d="M143.28,15l-2.92,6.13c1.43-1.09,2.89-2.19,4.37-3.28Z"/><path class="cls-31" d="M148.33,24.88c-2.2,1.44-6.43,1.88-10.68,3.9a27.88,27.88,0,0,0-2.4,4.63c-2.36.24-4.22.68-6.12,1-4.66,3.32-4.81,3.07-9.74,6.18l6.23,6a171.24,171.24,0,0,0,18.8-13.26c2-1.54,3.95-3.06,5.92-4.54Z"/><path class="cls-32" d="M127.42,62.61,126.26,70l17.66-9.61,17.93,9.1-3.68-19.77,10.58-10.61C151.91,37.55,136.7,63.12,127.42,62.61Z"/><path class="cls-33" d="M116.2,80.49c19.59.43,36.92-2.82,56.83-3.4"/><path class="cls-34" d="M117.05,86.38c19,.78,45.71-4.39,55.34-3.56"/><path class="cls-35" d="M117.05,91.51c17.69,1.6,34.15-2.39,51.7-3"/><path class="cls-36" d="M118.12,97.65c14.82,1.06,38.06-2.94,51.91-2.94"/></g></svg>