<svg xmlns="http://www.w3.org/2000/svg" xmlns:xlink="http://www.w3.org/1999/xlink" viewBox="0 0 280 280"><defs><style>.cls-1,.cls-10,.cls-13,.cls-17{fill:none;}.cls-1{stroke:#231f20;stroke-width:5px;}.cls-2{fill:#f7941d;}.cls-3{fill:url(#radial-gradient);}.cls-4{fill:url(#linear-gradient);}.cls-19,.cls-20,.cls-21,.cls-5,.cls-6,.cls-7{stroke:#262262;}.cls-10,.cls-11,.cls-13,.cls-15,.cls-17,.cls-18,.cls-19,.cls-21,.cls-5,.cls-6{stroke-linecap:round;}.cls-10,.cls-11,.cls-13,.cls-15,.cls-17,.cls-18,.cls-19,.cls-20,.cls-21,.cls-5,.cls-6,.cls-7{stroke-linejoin:round;}.cls-11,.cls-15,.cls-18,.cls-19,.cls-21,.cls-5,.cls-6,.cls-7{stroke-width:2px;}.cls-5{fill:url(#linear-gradient-2);}.cls-6{fill:url(#linear-gradient-3);}.cls-7{fill:url(#linear-gradient-4);}.cls-8{fill:url(#linear-gradient-5);}.cls-9{fill:#262262;}.cls-10{stroke:#009444;stroke-width:5.64px;}.cls-11,.cls-15,.cls-18{stroke:#fff;}.cls-11{fill:url(#linear-gradient-6);}.cls-12{fill:#e6e7e8;}.cls-13,.cls-17{stroke:#e6e7e8;}.cls-13{stroke-width:2.82px;}.cls-14{fill:url(#linear-gradient-7);}.cls-15{fill:url(#linear-gradient-8);}.cls-16{fill:url(#linear-gradient-9);}.cls-17{stroke-width:2.85px;}.cls-18{fill:url(#linear-gradient-10);}.cls-19{fill:url(#linear-gradient-11);}.cls-20{stroke-width:1px;fill:url(#linear-gradient-12);}.cls-21{fill:url(#linear-gradient-13);}.cls-22{fill:url(#linear-gradient-14);}.cls-23{fill:url(#linear-gradient-15);}.cls-24{fill:url(#linear-gradient-16);}.cls-25{fill:url(#linear-gradient-17);}.cls-26{fill:url(#linear-gradient-18);}.cls-27{fill:url(#linear-gradient-19);}.cls-28{fill:url(#New_Gradient_Swatch_copy_2);}.cls-29{fill:#fbb040;}.cls-30{fill:#fff;}.cls-31{fill:url(#linear-gradient-20);}.cls-32{fill:url(#linear-gradient-21);}.cls-33{fill:url(#linear-gradient-22);}.cls-34{fill:url(#radial-gradient-2);}</style><radialGradient id="radial-gradient" cx="146.48" cy="86.24" r="337.49" gradientTransform="translate(-3.99 -0.74)" gradientUnits="userSpaceOnUse"><stop offset="0.23" stop-color="#ffde17"/><stop offset="1" stop-color="#f7941d"/></radialGradient><linearGradient id="linear-gradient" x1="133.16" y1="223.95" x2="141.39" y2="264.06" gradientUnits="userSpaceOnUse"><stop offset="0" stop-color="#f7941d"/><stop offset="1" stop-color="#f7941d" stop-opacity="0"/></linearGradient><linearGradient id="linear-gradient-2" x1="139.33" y1="209.89" x2="135.85" y2="198.36" gradientUnits="userSpaceOnUse"><stop offset="0" stop-color="#662d91"/><stop offset="1" stop-color="#262262"/></linearGradient><linearGradient id="linear-gradient-3" x1="160.28" y1="136.05" x2="129.26" y2="147.24" gradientUnits="userSpaceOnUse"><stop offset="0" stop-color="#262262"/><stop offset="1" stop-color="#662d91"/></linearGradient><linearGradient id="linear-gradient-4" x1="43.74" y1="119.58" x2="56.19" y2="104.07" gradientUnits="userSpaceOnUse"><stop offset="0.01" stop-color="#262262"/><stop offset="0.53" stop-color="#662d91"/><stop offset="1" stop-color="#262262"/></linearGradient><linearGradient id="linear-gradient-5" x1="50.38" y1="109.73" x2="58.62" y2="122.08" xlink:href="#linear-gradient-2"/><linearGradient id="linear-gradient-6" x1="203.66" y1="132.7" x2="102.47" y2="104.07" gradientTransform="translate(184.47 323.74) rotate(-132.52)" gradientUnits="userSpaceOnUse"><stop offset="0" stop-color="#f2f1ef"/><stop offset="1" stop-color="#fff"/></linearGradient><linearGradient id="linear-gradient-7" x1="161.48" y1="115.65" x2="260.16" y2="13.77" gradientUnits="userSpaceOnUse"><stop offset="0" stop-color="#e6e7e8"/><stop offset="1" stop-color="#e6e7e8" stop-opacity="0"/></linearGradient><linearGradient id="linear-gradient-8" x1="142" y1="129.52" x2="195.26" y2="27.66" gradientTransform="translate(158.7 261.66) rotate(-110.51)" xlink:href="#linear-gradient-6"/><linearGradient id="linear-gradient-9" x1="146" y1="113.69" x2="148.06" y2="15.71" xlink:href="#linear-gradient-7"/><linearGradient id="linear-gradient-10" x1="165.57" y1="100.47" x2="59.05" y2="61.19" gradientTransform="translate(-9.24 141.71) rotate(-65.96)" xlink:href="#linear-gradient-6"/><linearGradient id="linear-gradient-11" x1="160.8" y1="253.14" x2="120.03" y2="127.15" xlink:href="#linear-gradient-2"/><linearGradient id="linear-gradient-12" x1="120.53" y1="119.01" x2="43.68" y2="121.89" xlink:href="#linear-gradient-2"/><linearGradient id="linear-gradient-13" x1="102.14" y1="169.9" x2="91.97" y2="316.61" xlink:href="#linear-gradient-2"/><linearGradient id="linear-gradient-14" x1="86.94" y1="197.94" x2="112.32" y2="156.28" gradientUnits="userSpaceOnUse"><stop offset="0.01" stop-color="#262262" stop-opacity="0"/><stop offset="1" stop-color="#262262"/></linearGradient><linearGradient id="linear-gradient-15" x1="59.69" y1="165.18" x2="79.3" y2="165.18" gradientUnits="userSpaceOnUse"><stop offset="0" stop-color="#ffde17"/><stop offset="1" stop-color="#fbb040"/></linearGradient><linearGradient id="linear-gradient-16" x1="43.14" y1="181.4" x2="66.46" y2="181.4" gradientUnits="userSpaceOnUse"><stop offset="0" stop-color="#f9ed32"/><stop offset="1" stop-color="#fbb040"/></linearGradient><linearGradient id="linear-gradient-17" x1="64.5" y1="185.42" x2="114.8" y2="185.42" xlink:href="#linear-gradient-15"/><linearGradient id="linear-gradient-18" x1="78.04" y1="174.4" x2="88.31" y2="206.57" gradientUnits="userSpaceOnUse"><stop offset="0.78" stop-color="#ffde17"/><stop offset="0.9" stop-color="#fbb040"/></linearGradient><linearGradient id="linear-gradient-19" x1="91.06" y1="241.21" x2="78.7" y2="211.24" gradientUnits="userSpaceOnUse"><stop offset="0" stop-color="#fbb040"/><stop offset="1" stop-color="#ffde17"/></linearGradient><radialGradient id="New_Gradient_Swatch_copy_2" cx="561.74" cy="191.91" r="37.6" gradientTransform="translate(-401.65 1.36) scale(0.86 1)" xlink:href="#linear-gradient-16"/><linearGradient id="linear-gradient-20" x1="79.34" y1="180.58" x2="59.32" y2="190.06" gradientUnits="userSpaceOnUse"><stop offset="0.01" stop-color="#fff"/><stop offset="1" stop-color="#fff" stop-opacity="0"/></linearGradient><linearGradient id="linear-gradient-21" x1="50.91" y1="181.09" x2="55.63" y2="181.09" xlink:href="#linear-gradient-20"/><linearGradient id="linear-gradient-22" x1="62.13" y1="164.77" x2="65.88" y2="164.77" xlink:href="#linear-gradient-20"/><radialGradient id="radial-gradient-2" cx="571.25" cy="203.33" r="27.09" gradientTransform="translate(-401.65 1.36) scale(0.86 1)" gradientUnits="userSpaceOnUse"><stop offset="0.19" stop-color="#fff"/><stop offset="1" stop-color="#fff" stop-opacity="0"/></radialGradient></defs><title>WritingRoom_Icons_Final4</title><g id="Layer_1" data-name="Layer 1"><rect class="cls-1" x="28.26" y="34.23" width="217" height="243.28" rx="5.37" ry="5.37"/><rect class="cls-1" x="28.26" y="27.5" width="217" height="243.28" rx="5.37" ry="5.37"/><path class="cls-1" d="M239.88,28.5a4.38,4.38,0,0,1,4.38,4.38V265.41a4.38,4.38,0,0,1-4.37,4.38H33.63a4.38,4.38,0,0,1-4.37-4.37V32.88a4.38,4.38,0,0,1,4.37-4.37H239.88m0-1H33.63a5.37,5.37,0,0,0-5.37,5.38V265.41a5.38,5.38,0,0,0,5.37,5.38H239.88a5.38,5.38,0,0,0,5.38-5.37V32.88a5.37,5.37,0,0,0-5.37-5.37Z"/><rect class="cls-2" x="28.26" y="34.23" width="217" height="243.28" rx="5.37" ry="5.37"/><rect class="cls-3" x="28.26" y="27.5" width="217" height="243.28" rx="5.37" ry="5.37"/><ellipse class="cls-4" cx="135.37" cy="234.73" rx="65.46" ry="24.61"/><polygon class="cls-5" points="174.87 196.48 148.74 80.11 61.56 100.74 58.76 103.35 97.48 210.62 173.43 199.3 174.87 196.48"/><polygon class="cls-6" points="172.93 199.49 143.8 82.69 60.83 103.91 83.13 220.73 172.93 199.49"/><path class="cls-7" d="M61.5,103.86l.32-3.12C49.74,103,42.51,111.62,41.18,124l3.39-2.55Z"/><path class="cls-8" d="M45.64,123.47C46,115.86,51.52,107,60.7,104.35l4.78,26.78Z"/><path class="cls-9" d="M59.92,105.65l4.27,23.91-17.5-6.75a20.6,20.6,0,0,1,13.24-17.15m1.58-2.54c-11,2.54-16.87,13-16.87,21l22.15,8.54L61.5,103.11Z"/><line class="cls-10" x1="148.77" y1="81.89" x2="152.73" y2="77.55"/><rect class="cls-11" x="100.9" y="75.32" width="125.03" height="91.98" transform="translate(363.28 82.87) rotate(132.52)"/><polygon class="cls-12" points="176.13 150.58 224.15 106.72 171.41 60.36 131.05 109.58 176.13 150.58"/><path class="cls-13" d="M172.19,163.18C166,150.65,152.3,144,141.71,134.86,135,129,129.4,122.08,123.85,115.15"/><path class="cls-13" d="M164.14,165.07c-8.86-10.77-22.17-17-31.52-27.35-4.17-4.61-7.59-10.06-12.8-13.44"/><path class="cls-13" d="M161.55,172.86c-8.82-6.48-17.68-13-25.29-20.86-7-7.2-13-15.58-21.4-21"/><path class="cls-13" d="M148.45,173.71a229.32,229.32,0,0,1-32.26-30"/><polygon class="cls-14" points="202.04 145.73 218.65 88.99 165.09 39.25 106.36 104.62 121.87 155 149.38 142.35 188.73 160.2 202.04 145.73"/><rect class="cls-15" x="107.57" y="29.81" width="125.03" height="91.98" transform="translate(300.68 -56.94) rotate(110.51)"/><polygon class="cls-16" points="177.99 119.46 144.25 19.82 113.74 120.97 148.02 133.12 177.99 119.46"/><polygon class="cls-12" points="193.16 98.91 221.29 39.57 154.29 16.38 135.37 77.8 193.16 98.91"/><path class="cls-17" d="M194.08,112.26c-10.58-9.37-25.87-10.42-39.25-15-8.48-2.9-16.36-7.3-24.18-11.69"/><path class="cls-13" d="M187.15,116.09c-12.25-6.67-26.93-7.47-39.48-13.55-5.59-2.71-10.81-6.48-16.91-7.66"/><path class="cls-13" d="M187.68,124.29c-10.6-2.71-21.26-5.43-31.27-9.87-9.17-4.06-17.87-9.58-27.72-11.46"/><path class="cls-13" d="M175.85,130a229.32,229.32,0,0,1-41.13-15.68"/><rect class="cls-18" x="42.05" y="31.98" width="125.03" height="91.98" transform="translate(133.18 -49.28) rotate(65.96)"/><polygon class="cls-12" points="136.54 77.8 115.17 16.38 51.77 46.56 81.09 103.06 136.54 77.8"/><path class="cls-13" d="M146.47,86.59c-14,.74-25.5,10.62-38.11,16.69-8,3.85-16.62,6.21-25.19,8.55"/><path class="cls-13" d="M145,94.72c-13.4,3.84-24.43,13.57-37.64,18-5.88,2-12.25,3-17.42,6.4"/><path class="cls-13" d="M151.11,100.19c-9.45,5.51-19,11-29.2,14.9-9.38,3.54-19.45,5.71-27.8,11.28"/><path class="cls-13" d="M146.68,112.55a229.32,229.32,0,0,1-40.31,17.68"/><polygon class="cls-19" points="165.09 257.65 119.93 115.85 115.78 123.49 159.91 261.42 165.09 257.65"/><polygon class="cls-20" points="43.23 120.44 40.68 124.04 116.57 122.83 119.93 115.35 43.23 120.44"/><polygon class="cls-21" points="159.91 261.42 117.58 120.79 41.18 124.29 78.9 231.31 159.91 261.42"/><polygon class="cls-22" points="119.45 224.15 94.08 202.47 79.66 209.66 76.22 184.1 59.78 163.78 75.5 160.99 77.69 133.54 94.25 162.03 122.73 168.97 107.47 190.53 119.45 224.15"/><path class="cls-23" d="M79.3,173.13a.92.92,0,0,1-.26-.28L64,147c-.28-.48-.72-.44-1.14-.31-.25.08-2.93,1.24-3,1.6l.62,23.07a1,1,0,0,1-.73.89l-.13,0c2.24,3.27,4.75,8.23,7.49,11.46C71.24,180.41,74.7,175.83,79.3,173.13Z"/><path class="cls-24" d="M66.46,182.35c-2.74-3.23-4.53-6.8-6.76-10.07l-13.31,2.36a16,16,0,0,0-3.24,1.7l13.57,14.17C60,187.82,63.18,185,66.46,182.35Z"/><path class="cls-25" d="M106.33,179.78l-26.75-6.51a.8.8,0,0,1-.28-.14c-4.61,2.7-19.32,14.69-22.59,17.39L61,195a1.07,1.07,0,0,1,.22.53l.29,2.15c14.86-6.1,29.56-12.94,45.38-16.51A1,1,0,0,0,106.33,179.78Z"/><path class="cls-26" d="M92.78,201.22l14-19.83a1,1,0,0,0,.1-.2C91.1,184.76,76.4,191.6,61.54,197.7l2,15q14.54-6,29.08-10.55A1.12,1.12,0,0,1,92.78,201.22Z"/><path class="cls-27" d="M64.47,219.54a.86.86,0,0,0,1.19.76l12.95-6.46a.76.76,0,0,1,.85.11l20.36,20.75c.24.2,2.63-1.3,2.86-1.37a1,1,0,0,0,.58-1.35l-10.6-29.76s0-.07,0-.11q-14.54,4.54-29.08,10.55Z"/><path class="cls-28" d="M77.79,214.09a2.36,2.36,0,0,0-2.61-.33l-12,6-3.1-23a2.67,2.67,0,0,0-.56-1.33L45,177.39l12.37-2.2a2.55,2.55,0,0,0,2-2.35l1.72-21.55L74.94,175a2.45,2.45,0,0,0,1.54,1.17l25.84,6.29L88.76,201.64a2.72,2.72,0,0,0-.33,2.48l9.76,27.39Z"/><path class="cls-29" d="M62.94,149.08h0m-.6,7.46,11.2,19.27a4.1,4.1,0,0,0,2.55,1.93l23.54,5.73-12.2,17.24a4.33,4.33,0,0,0-.53,4l7.74,21.72L78.84,212.87a4,4,0,0,0-4.37-.55l-9.95,5-2.8-20.81a4.28,4.28,0,0,0-.91-2.12L48,178.49l9.69-1.72A4.16,4.16,0,0,0,61,173l1.31-16.43m-1.74-8.62a.91.91,0,0,0-.86.91l-1.91,23.89a1,1,0,0,1-.73.89L43.67,176a1,1,0,0,0-.5,1.67l15.14,18.71a1.07,1.07,0,0,1,.22.53l3.23,24a.91.91,0,0,0,.85.84.76.76,0,0,0,.34-.08L75.9,215.2a.76.76,0,0,1,.34-.08.78.78,0,0,1,.51.19l22.49,19.22a.77.77,0,0,0,.51.2,1,1,0,0,0,.8-1.39l-10.6-29.76a1.13,1.13,0,0,1,.13-1l14-19.83a1.05,1.05,0,0,0-.49-1.61l-26.75-6.51a.87.87,0,0,1-.54-.42l-15-25.84a.81.81,0,0,0-.71-.44Z"/><path class="cls-30" d="M60.81,148.88h0m-.05.66,14.65,25.19a1.92,1.92,0,0,0,1.21.92l26.6,6.48-14,19.81a2.21,2.21,0,0,0-.27,2l10.42,29.28L77.44,214.49a1.86,1.86,0,0,0-1.21-.45,1.84,1.84,0,0,0-.82.19l-12.63,6.3-3.2-23.78a2.14,2.14,0,0,0-.45-1.06L44.06,177l13.23-2.35a2,2,0,0,0,1.61-1.86l1.86-23.25m-.16-1.63a.91.91,0,0,0-.86.91l-1.91,23.89a1,1,0,0,1-.73.89L43.67,176a1,1,0,0,0-.5,1.67l15.14,18.71a1.07,1.07,0,0,1,.22.53l3.23,24a.91.91,0,0,0,.85.84.76.76,0,0,0,.34-.08L75.9,215.2a.76.76,0,0,1,.34-.08.78.78,0,0,1,.51.19l22.49,19.22a.77.77,0,0,0,.51.2,1,1,0,0,0,.8-1.39l-10.6-29.76a1.13,1.13,0,0,1,.13-1l14-19.83a1.05,1.05,0,0,0-.49-1.61l-26.75-6.51a.87.87,0,0,1-.54-.42l-15-25.84a.81.81,0,0,0-.71-.44Z"/><path class="cls-31" d="M76.06,179.14a4.85,4.85,0,0,1-3-2.36L70.2,171.9c-4.2,5.86-7.46,12.43-11.5,18.21l2.5,3.09a6,6,0,0,1,1.26,3l.68,5.07c6.29-5.64,11-13.6,15-21.6Z"/><path class="cls-32" d="M51.12,180.74l2.35,2.9a36.84,36.84,0,0,1,2.17-5.1l-4.07.72A.92.92,0,0,0,51.12,180.74Z"/><path class="cls-33" d="M65.88,164.47l-2-3.51a.59.59,0,0,0-1.1.33l-.61,7.59C63.34,167.4,64.6,165.93,65.88,164.47Z"/><path class="cls-34" d="M87,199.63l9.49-13.4a1.5,1.5,0,0,0-.69-2.29l-5-1.23a9.79,9.79,0,0,1-.31,4.16C85,196.84,70.92,201.13,68.51,212c-.19.84.58,1.55,1.27,1.21L74.33,211a4.24,4.24,0,0,1,1.91-.46,4.37,4.37,0,0,1,2.87,1.09L90,220.9c.73.63,1.71-.26,1.37-1.24l-5.1-14.31A6.33,6.33,0,0,1,87,199.63Z"/></g></svg>